<?xml version="1.0" standalone="no"?>
<!DOCTYPE svg PUBLIC "-//W3C//DTD SVG 20010904//EN"
 "http://www.w3.org/TR/2001/REC-SVG-20010904/DTD/svg10.dtd">
<svg version="1.0" xmlns="http://www.w3.org/2000/svg"
 width="187.000000pt" height="187.000000pt" viewBox="0 0 187.000000 187.000000"
 preserveAspectRatio="xMidYMid meet">
<metadata>
Created by potrace 1.11, written by Peter Selinger 2001-2013
</metadata>
<g transform="translate(0.000000,187.000000) scale(0.100000,-0.100000)"
fill="#000000" stroke="none">
<path d="M386 1714 c-11 -29 -6 -91 9 -104 23 -19 35 -2 35 49 0 58 -29 95
-44 55z"/>
<path d="M1471 1700 c-11 -33 -5 -86 12 -97 28 -17 52 88 25 115 -18 18 -25
15 -37 -18z"/>
<path d="M306 1604 c-15 -39 11 -114 39 -114 20 0 20 62 0 100 -17 33 -30 38
-39 14z"/>
<path d="M1563 1608 c-15 -18 -30 -79 -25 -100 6 -27 30 -21 47 12 18 36 19
61 2 84 -11 15 -15 15 -24 4z"/>
<path d="M469 1591 l-24 -19 27 -13 c19 -8 38 -9 60 -3 43 13 46 29 7 43 -42
14 -43 14 -70 -8z"/>
<path d="M1361 1597 c-32 -16 -29 -30 8 -41 22 -6 40 -5 59 3 l27 13 -24 19
c-27 22 -37 23 -70 6z"/>
<path d="M407 1492 c-21 -23 -13 -32 27 -32 35 0 80 26 71 41 -11 17 -81 10
-98 -9z"/>
<path d="M1395 1501 c-9 -15 37 -41 72 -41 38 0 45 23 14 40 -24 13 -78 13
-86 1z"/>
<path d="M250 1452 c0 -39 31 -82 59 -82 21 0 6 68 -20 96 -31 33 -39 30 -39
-14z"/>
<path d="M892 1470 c-18 -11 -36 -30 -41 -43 -10 -28 3 -165 17 -179 21 -21
25 2 7 41 -13 31 -15 48 -8 78 8 33 13 38 34 35 34 -5 80 -5 103 -1 13 3 25
-7 38 -31 19 -32 19 -36 4 -61 -17 -28 -22 -69 -8 -69 13 0 35 74 35 117 -1
61 -20 99 -58 117 -44 21 -83 20 -123 -4z"/>
<path d="M1611 1466 c-28 -30 -41 -96 -18 -96 25 0 57 49 57 86 0 40 -9 42
-39 10z"/>
<path d="M386 1399 c-35 -27 -33 -39 7 -39 34 0 85 39 70 53 -13 14 -51 7 -77
-14z"/>
<path d="M1435 1411 c-10 -17 37 -51 72 -51 40 0 42 12 7 39 -28 22 -69 28
-79 12z"/>
<path d="M887 1353 c-4 -3 -7 -15 -7 -25 0 -13 8 -18 28 -18 15 0 33 5 39 11
8 8 13 8 17 0 10 -15 63 -14 68 2 9 22 -3 37 -31 37 -15 0 -32 -5 -38 -11 -8
-8 -13 -8 -17 0 -8 12 -49 15 -59 4z"/>
<path d="M210 1341 c0 -30 26 -74 52 -87 16 -9 32 -13 35 -10 11 10 -8 58 -32
82 -24 23 -55 32 -55 15z"/>
<path d="M1626 1319 c-14 -17 -26 -41 -26 -55 0 -27 3 -28 33 -12 31 16 46 39
47 71 0 36 -22 35 -54 -4z"/>
<path d="M760 1335 c0 -19 112 -296 118 -291 3 3 -19 68 -48 143 -49 127 -70
172 -70 148z"/>
<path d="M369 1291 c-34 -34 -37 -51 -10 -51 24 0 81 47 81 66 0 24 -40 15
-71 -15z"/>
<path d="M1460 1306 c0 -19 57 -66 81 -66 27 0 24 17 -10 51 -31 30 -71 39
-71 15z"/>
<path d="M861 1209 c-17 -7 -21 -14 -16 -27 4 -9 21 -53 37 -97 47 -124 68
-131 143 -51 27 29 66 61 85 71 61 31 58 50 -9 85 -56 27 -100 35 -107 17 -12
-31 -74 -32 -74 -1 0 16 -24 17 -59 3z m118 -51 c0 -7 -6 -28 -12 -46 l-12
-33 -11 46 c-10 43 -10 45 13 45 13 0 23 -6 22 -12z"/>
<path d="M210 1192 c0 -27 27 -59 60 -70 16 -6 31 -8 34 -4 7 13 -13 49 -40
71 -33 26 -54 27 -54 3z"/>
<path d="M376 1189 c-30 -24 -35 -59 -8 -59 20 0 42 21 61 58 10 19 9 22 -7
22 -11 0 -31 -9 -46 -21z"/>
<path d="M1467 1191 c6 -22 39 -55 66 -64 24 -9 22 23 -4 57 -25 32 -70 37
-62 7z"/>
<path d="M1623 1175 c-38 -38 -39 -62 -2 -57 29 4 69 46 69 73 0 29 -28 23
-67 -16z"/>
<path d="M770 1165 c-17 -21 -7 -40 31 -59 18 -9 33 -15 34 -14 5 7 -35 88
-43 88 -5 0 -15 -7 -22 -15z"/>
<path d="M425 1108 c-30 -16 -45 -39 -45 -70 0 -26 2 -28 20 -18 23 12 53 65
48 85 -2 11 -8 11 -23 3z"/>
<path d="M1450 1095 c0 -17 12 -39 32 -58 28 -28 33 -30 36 -14 7 33 -7 62
-38 80 l-30 18 0 -26z"/>
<path d="M230 1057 c0 -26 32 -56 66 -63 42 -8 49 -2 35 25 -20 37 -101 68
-101 38z"/>
<path d="M1608 1054 c-24 -13 -48 -42 -48 -58 0 -24 93 12 104 39 14 39 -7 46
-56 19z"/>
<path d="M441 994 c-22 -28 -28 -69 -12 -79 22 -13 64 60 53 93 -6 19 -19 14
-41 -14z"/>
<path d="M1418 1008 c-7 -20 10 -74 28 -89 13 -10 17 -10 25 2 13 20 11 30
-11 67 -21 34 -35 40 -42 20z"/>
<path d="M890 1001 c0 -17 12 -41 20 -41 10 0 1 38 -11 46 -5 3 -9 1 -9 -5z"/>
<path d="M270 930 c0 -20 53 -60 79 -60 41 0 55 13 34 32 -40 35 -113 53 -113
28z"/>
<path d="M501 909 c-25 -40 -26 -58 -7 -84 13 -18 14 -17 30 13 18 34 20 70 7
91 -7 11 -14 7 -30 -20z"/>
<path d="M1555 928 c-40 -22 -56 -41 -43 -50 25 -16 69 -8 93 17 14 13 25 29
25 35 0 13 -50 12 -75 -2z"/>
<path d="M1360 900 c0 -39 28 -96 41 -83 14 14 14 59 -1 87 -19 36 -40 33 -40
-4z"/>
<path d="M347 813 c-12 -11 -8 -18 24 -37 34 -20 99 -15 99 8 0 26 -103 50
-123 29z"/>
<path d="M1453 808 c-33 -16 -28 -36 11 -43 38 -8 100 18 93 38 -5 16 -76 19
-104 5z"/>
<path d="M813 793 c76 -2 198 -2 270 0 73 1 11 3 -138 3 -148 0 -208 -2 -132
-3z"/>
<path d="M660 511 c0 -5 9 -13 20 -16 19 -6 20 -15 20 -145 0 -130 -1 -139
-20 -145 -50 -16 -11 -25 110 -25 l130 0 0 45 c0 53 -22 62 -39 15 -9 -27 -14
-30 -55 -30 l-46 0 0 65 0 65 29 0 c21 0 32 -6 36 -20 12 -39 25 -19 25 38
l-1 57 -18 -22 c-11 -13 -30 -23 -45 -23 -25 0 -26 2 -26 60 l0 60 43 0 c38 0
44 -3 54 -30 13 -35 33 -40 33 -7 0 12 3 32 6 45 6 22 6 22 -125 22 -74 0
-131 -4 -131 -9z"/>
<path d="M1035 495 c-18 -17 -25 -35 -25 -63 0 -45 19 -68 95 -116 54 -34 67
-63 40 -90 -19 -19 -68 -21 -82 -3 -6 6 -13 25 -17 40 -9 39 -30 29 -38 -19
-8 -48 -1 -55 54 -63 99 -15 168 23 168 93 0 43 -23 71 -91 110 -49 29 -54 36
-54 67 0 33 1 34 40 34 36 0 40 -3 49 -32 12 -46 32 -41 40 9 9 52 0 58 -87
58 -59 0 -71 -3 -92 -25z"/>
</g>
</svg>
